<mxfile host="Electron" agent="Mozilla/5.0 (Windows NT 10.0; Win64; x64) AppleWebKit/537.36 (KHTML, like Gecko) draw.io/24.7.17 Chrome/128.0.6613.36 Electron/32.0.1 Safari/537.36" version="24.7.17">
  <diagram name="Page-1" id="vZ_w3Y2zfD9asWs6syzi">
    <mxGraphModel dx="10441" dy="3707" grid="1" gridSize="10" guides="1" tooltips="1" connect="1" arrows="1" fold="1" page="1" pageScale="1" pageWidth="4681" pageHeight="3300" math="0" shadow="0">
      <root>
        <mxCell id="0" />
        <mxCell id="1" parent="0" />
        <mxCell id="psFaw4t_rzjO1zKl0KxU-1" value="&lt;font style=&quot;font-size: 60px;&quot;&gt;User&lt;/font&gt;" style="rounded=0;whiteSpace=wrap;html=1;fillColor=#a20025;fontColor=#ffffff;strokeColor=#6F0000;" parent="1" vertex="1">
          <mxGeometry x="420" y="720" width="360" height="160" as="geometry" />
        </mxCell>
        <mxCell id="psFaw4t_rzjO1zKl0KxU-2" value="&lt;font style=&quot;font-size: 60px;&quot;&gt;RoadSign&lt;/font&gt;" style="rounded=0;whiteSpace=wrap;html=1;fillColor=#a20025;strokeColor=#6F0000;fontColor=#ffffff;" parent="1" vertex="1">
          <mxGeometry x="-1600" y="1180" width="410" height="190" as="geometry" />
        </mxCell>
        <mxCell id="psFaw4t_rzjO1zKl0KxU-3" value="&lt;font style=&quot;font-size: 60px;&quot;&gt;Report&lt;/font&gt;" style="rounded=0;whiteSpace=wrap;html=1;fillColor=#a20025;fontColor=#ffffff;strokeColor=#6F0000;" parent="1" vertex="1">
          <mxGeometry x="2460" y="1310" width="350" height="190" as="geometry" />
        </mxCell>
        <mxCell id="psFaw4t_rzjO1zKl0KxU-4" value="&lt;font style=&quot;font-size: 60px;&quot;&gt;Alert&lt;/font&gt;" style="rounded=0;whiteSpace=wrap;html=1;fillColor=#a20025;fontColor=#ffffff;strokeColor=#6F0000;" parent="1" vertex="1">
          <mxGeometry x="-1210" y="2310" width="400" height="160" as="geometry" />
        </mxCell>
        <mxCell id="psFaw4t_rzjO1zKl0KxU-5" value="&lt;font style=&quot;font-size: 60px;&quot;&gt;Route&lt;/font&gt;" style="rounded=0;whiteSpace=wrap;html=1;fillColor=#a20025;fontColor=#ffffff;strokeColor=#6F0000;" parent="1" vertex="1">
          <mxGeometry x="440" y="2740" width="360" height="180" as="geometry" />
        </mxCell>
        <mxCell id="psFaw4t_rzjO1zKl0KxU-6" value="&lt;font style=&quot;font-size: 61px;&quot;&gt;UserPreference&lt;/font&gt;" style="rounded=0;whiteSpace=wrap;html=1;fillColor=#a20025;fontColor=#ffffff;strokeColor=#6F0000;" parent="1" vertex="1">
          <mxGeometry x="2400" y="2290" width="470" height="200" as="geometry" />
        </mxCell>
        <mxCell id="psFaw4t_rzjO1zKl0KxU-7" value="&lt;font style=&quot;font-size: 60px;&quot;&gt;user_id&lt;/font&gt;" style="ellipse;whiteSpace=wrap;html=1;fillColor=#0050ef;fontColor=#ffffff;strokeColor=#001DBC;" parent="1" vertex="1">
          <mxGeometry x="70" y="480" width="320" height="170" as="geometry" />
        </mxCell>
        <mxCell id="psFaw4t_rzjO1zKl0KxU-8" value="&lt;font style=&quot;font-size: 60px;&quot;&gt;email&lt;/font&gt;" style="ellipse;whiteSpace=wrap;html=1;fillColor=#0050ef;fontColor=#ffffff;strokeColor=#001DBC;" parent="1" vertex="1">
          <mxGeometry x="370" y="330" width="320" height="170" as="geometry" />
        </mxCell>
        <mxCell id="psFaw4t_rzjO1zKl0KxU-9" value="&lt;font style=&quot;font-size: 60px;&quot;&gt;name&lt;/font&gt;" style="ellipse;whiteSpace=wrap;html=1;fillColor=#0050ef;fontColor=#ffffff;strokeColor=#001DBC;" parent="1" vertex="1">
          <mxGeometry x="730" y="320" width="320" height="170" as="geometry" />
        </mxCell>
        <mxCell id="psFaw4t_rzjO1zKl0KxU-10" value="&lt;font style=&quot;font-size: 60px;&quot;&gt;role&lt;/font&gt;" style="ellipse;whiteSpace=wrap;html=1;fillColor=#0050ef;fontColor=#ffffff;strokeColor=#001DBC;" parent="1" vertex="1">
          <mxGeometry x="1070" y="410" width="320" height="170" as="geometry" />
        </mxCell>
        <mxCell id="psFaw4t_rzjO1zKl0KxU-11" value="&lt;font style=&quot;font-size: 60px;&quot;&gt;created_at&lt;/font&gt;" style="ellipse;whiteSpace=wrap;html=1;fillColor=#0050ef;fontColor=#ffffff;strokeColor=#001DBC;" parent="1" vertex="1">
          <mxGeometry x="1080" y="620" width="320" height="170" as="geometry" />
        </mxCell>
        <mxCell id="psFaw4t_rzjO1zKl0KxU-13" value="" style="endArrow=none;html=1;rounded=0;exitX=0.5;exitY=0;exitDx=0;exitDy=0;entryX=0.625;entryY=1;entryDx=0;entryDy=0;entryPerimeter=0;" parent="1" source="psFaw4t_rzjO1zKl0KxU-1" target="psFaw4t_rzjO1zKl0KxU-8" edge="1">
          <mxGeometry width="50" height="50" relative="1" as="geometry">
            <mxPoint x="555" y="530" as="sourcePoint" />
            <mxPoint x="590" y="540" as="targetPoint" />
          </mxGeometry>
        </mxCell>
        <mxCell id="psFaw4t_rzjO1zKl0KxU-14" value="" style="endArrow=none;html=1;rounded=0;entryX=0.375;entryY=1.035;entryDx=0;entryDy=0;entryPerimeter=0;exitX=0.683;exitY=-0.025;exitDx=0;exitDy=0;exitPerimeter=0;" parent="1" source="psFaw4t_rzjO1zKl0KxU-1" target="psFaw4t_rzjO1zKl0KxU-9" edge="1">
          <mxGeometry width="50" height="50" relative="1" as="geometry">
            <mxPoint x="760" y="590" as="sourcePoint" />
            <mxPoint x="810" y="540" as="targetPoint" />
          </mxGeometry>
        </mxCell>
        <mxCell id="psFaw4t_rzjO1zKl0KxU-15" value="" style="endArrow=none;html=1;rounded=0;" parent="1" source="psFaw4t_rzjO1zKl0KxU-1" edge="1">
          <mxGeometry width="50" height="50" relative="1" as="geometry">
            <mxPoint x="280" y="690" as="sourcePoint" />
            <mxPoint x="330" y="640" as="targetPoint" />
          </mxGeometry>
        </mxCell>
        <mxCell id="psFaw4t_rzjO1zKl0KxU-16" value="" style="endArrow=none;html=1;rounded=0;entryX=0.038;entryY=0.671;entryDx=0;entryDy=0;entryPerimeter=0;exitX=1;exitY=0;exitDx=0;exitDy=0;" parent="1" source="psFaw4t_rzjO1zKl0KxU-1" target="psFaw4t_rzjO1zKl0KxU-10" edge="1">
          <mxGeometry width="50" height="50" relative="1" as="geometry">
            <mxPoint x="940" y="640" as="sourcePoint" />
            <mxPoint x="990" y="590" as="targetPoint" />
          </mxGeometry>
        </mxCell>
        <mxCell id="psFaw4t_rzjO1zKl0KxU-17" value="" style="endArrow=none;html=1;rounded=0;exitX=1;exitY=0.5;exitDx=0;exitDy=0;entryX=0;entryY=0.5;entryDx=0;entryDy=0;" parent="1" source="psFaw4t_rzjO1zKl0KxU-1" target="psFaw4t_rzjO1zKl0KxU-11" edge="1">
          <mxGeometry width="50" height="50" relative="1" as="geometry">
            <mxPoint x="960" y="825" as="sourcePoint" />
            <mxPoint x="1010" y="775" as="targetPoint" />
          </mxGeometry>
        </mxCell>
        <mxCell id="psFaw4t_rzjO1zKl0KxU-21" value="&lt;font style=&quot;font-size: 60px;&quot;&gt;name&lt;/font&gt;" style="ellipse;whiteSpace=wrap;html=1;fillColor=#0050ef;fontColor=#ffffff;strokeColor=#001DBC;" parent="1" vertex="1">
          <mxGeometry x="-1560" y="630" width="320" height="170" as="geometry" />
        </mxCell>
        <mxCell id="psFaw4t_rzjO1zKl0KxU-22" value="&lt;font style=&quot;font-size: 60px;&quot;&gt;sign_id&lt;/font&gt;" style="ellipse;whiteSpace=wrap;html=1;fillColor=#0050ef;fontColor=#ffffff;strokeColor=#001DBC;" parent="1" vertex="1">
          <mxGeometry x="-2020" y="740" width="320" height="170" as="geometry" />
        </mxCell>
        <mxCell id="psFaw4t_rzjO1zKl0KxU-23" value="&lt;font style=&quot;font-size: 60px;&quot;&gt;description&lt;/font&gt;" style="ellipse;whiteSpace=wrap;html=1;strokeColor=#001DBC;fillColor=#0050ef;fontColor=#ffffff;" parent="1" vertex="1">
          <mxGeometry x="-1070" y="890" width="320" height="170" as="geometry" />
        </mxCell>
        <mxCell id="psFaw4t_rzjO1zKl0KxU-24" value="&lt;font style=&quot;font-size: 60px;&quot;&gt;imageUrl&lt;/font&gt;" style="ellipse;whiteSpace=wrap;html=1;fillColor=#0050ef;fontColor=#ffffff;strokeColor=#001DBC;" parent="1" vertex="1">
          <mxGeometry x="-1200" y="710" width="320" height="170" as="geometry" />
        </mxCell>
        <mxCell id="psFaw4t_rzjO1zKl0KxU-25" value="&lt;font style=&quot;font-size: 60px;&quot;&gt;category&lt;/font&gt;" style="ellipse;whiteSpace=wrap;html=1;fillColor=#0050ef;fontColor=#ffffff;strokeColor=#001DBC;" parent="1" vertex="1">
          <mxGeometry x="-2120" y="960" width="320" height="170" as="geometry" />
        </mxCell>
        <mxCell id="fRH8fA2iHK6c6NjHja-M-1" value="" style="endArrow=none;html=1;rounded=0;entryX=1;entryY=1;entryDx=0;entryDy=0;exitX=0.25;exitY=0;exitDx=0;exitDy=0;" parent="1" source="psFaw4t_rzjO1zKl0KxU-2" target="psFaw4t_rzjO1zKl0KxU-22" edge="1">
          <mxGeometry width="50" height="50" relative="1" as="geometry">
            <mxPoint x="-390" y="1220" as="sourcePoint" />
            <mxPoint x="-1530" y="1100" as="targetPoint" />
          </mxGeometry>
        </mxCell>
        <mxCell id="fRH8fA2iHK6c6NjHja-M-2" value="" style="endArrow=none;html=1;rounded=0;entryX=0.5;entryY=1;entryDx=0;entryDy=0;" parent="1" source="psFaw4t_rzjO1zKl0KxU-2" target="psFaw4t_rzjO1zKl0KxU-21" edge="1">
          <mxGeometry width="50" height="50" relative="1" as="geometry">
            <mxPoint x="-1420" y="1000" as="sourcePoint" />
            <mxPoint x="-1370" y="950" as="targetPoint" />
            <Array as="points">
              <mxPoint x="-1390" y="920" />
            </Array>
          </mxGeometry>
        </mxCell>
        <mxCell id="fRH8fA2iHK6c6NjHja-M-3" value="" style="endArrow=none;html=1;rounded=0;entryX=1;entryY=1;entryDx=0;entryDy=0;exitX=0;exitY=0;exitDx=0;exitDy=0;" parent="1" source="psFaw4t_rzjO1zKl0KxU-2" target="psFaw4t_rzjO1zKl0KxU-25" edge="1">
          <mxGeometry width="50" height="50" relative="1" as="geometry">
            <mxPoint x="470" y="1730" as="sourcePoint" />
            <mxPoint x="520" y="1680" as="targetPoint" />
          </mxGeometry>
        </mxCell>
        <mxCell id="fRH8fA2iHK6c6NjHja-M-5" value="&lt;font style=&quot;font-size: 60px;&quot;&gt;type&lt;/font&gt;" style="ellipse;whiteSpace=wrap;html=1;strokeColor=#001DBC;fillColor=#0050ef;fontColor=#ffffff;" parent="1" vertex="1">
          <mxGeometry x="2760" y="730" width="320" height="170" as="geometry" />
        </mxCell>
        <mxCell id="fRH8fA2iHK6c6NjHja-M-6" value="&lt;font style=&quot;font-size: 60px;&quot;&gt;user_id&lt;/font&gt;" style="ellipse;whiteSpace=wrap;html=1;strokeColor=#001DBC;fillColor=#0050ef;fontColor=#ffffff;" parent="1" vertex="1">
          <mxGeometry x="2390" y="750" width="320" height="170" as="geometry" />
        </mxCell>
        <mxCell id="fRH8fA2iHK6c6NjHja-M-7" value="&lt;font style=&quot;font-size: 60px;&quot;&gt;status&lt;/font&gt;" style="ellipse;whiteSpace=wrap;html=1;strokeColor=#001DBC;fillColor=#0050ef;fontColor=#ffffff;" parent="1" vertex="1">
          <mxGeometry x="3170" y="1420" width="320" height="170" as="geometry" />
        </mxCell>
        <mxCell id="fRH8fA2iHK6c6NjHja-M-8" value="&lt;font style=&quot;font-size: 60px;&quot;&gt;timestamp&lt;/font&gt;" style="ellipse;whiteSpace=wrap;html=1;strokeColor=#001DBC;fillColor=#0050ef;fontColor=#ffffff;" parent="1" vertex="1">
          <mxGeometry x="3170" y="1170" width="320" height="170" as="geometry" />
        </mxCell>
        <mxCell id="fRH8fA2iHK6c6NjHja-M-9" value="&lt;font style=&quot;font-size: 60px;&quot;&gt;imageUrl&lt;/font&gt;" style="ellipse;whiteSpace=wrap;html=1;strokeColor=#001DBC;fillColor=#0050ef;fontColor=#ffffff;" parent="1" vertex="1">
          <mxGeometry x="3080" y="1640" width="320" height="170" as="geometry" />
        </mxCell>
        <mxCell id="fRH8fA2iHK6c6NjHja-M-10" value="&lt;font style=&quot;font-size: 60px;&quot;&gt;report_id&lt;/font&gt;" style="ellipse;whiteSpace=wrap;html=1;strokeColor=#001DBC;fillColor=#0050ef;fontColor=#ffffff;" parent="1" vertex="1">
          <mxGeometry x="2010" y="790" width="320" height="170" as="geometry" />
        </mxCell>
        <mxCell id="fRH8fA2iHK6c6NjHja-M-11" value="&lt;font style=&quot;font-size: 60px;&quot;&gt;location&lt;/font&gt;" style="ellipse;whiteSpace=wrap;html=1;strokeColor=#001DBC;fillColor=#0050ef;fontColor=#ffffff;" parent="1" vertex="1">
          <mxGeometry x="3120" y="940" width="320" height="170" as="geometry" />
        </mxCell>
        <mxCell id="fRH8fA2iHK6c6NjHja-M-12" value="" style="endArrow=none;html=1;rounded=0;exitX=0;exitY=0;exitDx=0;exitDy=0;entryX=0.5;entryY=1;entryDx=0;entryDy=0;" parent="1" source="psFaw4t_rzjO1zKl0KxU-3" target="fRH8fA2iHK6c6NjHja-M-10" edge="1">
          <mxGeometry width="50" height="50" relative="1" as="geometry">
            <mxPoint x="2190" y="1010" as="sourcePoint" />
            <mxPoint x="2240" y="960" as="targetPoint" />
          </mxGeometry>
        </mxCell>
        <mxCell id="fRH8fA2iHK6c6NjHja-M-13" value="" style="endArrow=none;html=1;rounded=0;exitX=0.25;exitY=0;exitDx=0;exitDy=0;entryX=0.341;entryY=0.92;entryDx=0;entryDy=0;entryPerimeter=0;" parent="1" source="psFaw4t_rzjO1zKl0KxU-3" target="fRH8fA2iHK6c6NjHja-M-6" edge="1">
          <mxGeometry width="50" height="50" relative="1" as="geometry">
            <mxPoint x="2490" y="950" as="sourcePoint" />
            <mxPoint x="2610" y="950" as="targetPoint" />
          </mxGeometry>
        </mxCell>
        <mxCell id="fRH8fA2iHK6c6NjHja-M-14" value="" style="endArrow=none;html=1;rounded=0;exitX=0.5;exitY=0;exitDx=0;exitDy=0;entryX=0.351;entryY=0.959;entryDx=0;entryDy=0;entryPerimeter=0;" parent="1" source="psFaw4t_rzjO1zKl0KxU-3" target="fRH8fA2iHK6c6NjHja-M-5" edge="1">
          <mxGeometry width="50" height="50" relative="1" as="geometry">
            <mxPoint x="2910" y="960" as="sourcePoint" />
            <mxPoint x="2960" y="910" as="targetPoint" />
          </mxGeometry>
        </mxCell>
        <mxCell id="fRH8fA2iHK6c6NjHja-M-15" value="" style="endArrow=none;html=1;rounded=0;exitX=0.75;exitY=0;exitDx=0;exitDy=0;entryX=0;entryY=0.5;entryDx=0;entryDy=0;" parent="1" source="psFaw4t_rzjO1zKl0KxU-3" target="fRH8fA2iHK6c6NjHja-M-11" edge="1">
          <mxGeometry width="50" height="50" relative="1" as="geometry">
            <mxPoint x="2920" y="1150" as="sourcePoint" />
            <mxPoint x="2970" y="1100" as="targetPoint" />
          </mxGeometry>
        </mxCell>
        <mxCell id="fRH8fA2iHK6c6NjHja-M-16" value="" style="endArrow=none;html=1;rounded=0;exitX=1;exitY=0;exitDx=0;exitDy=0;" parent="1" source="psFaw4t_rzjO1zKl0KxU-3" target="fRH8fA2iHK6c6NjHja-M-8" edge="1">
          <mxGeometry width="50" height="50" relative="1" as="geometry">
            <mxPoint x="3040" y="1290" as="sourcePoint" />
            <mxPoint x="3090" y="1240" as="targetPoint" />
          </mxGeometry>
        </mxCell>
        <mxCell id="fRH8fA2iHK6c6NjHja-M-17" value="" style="endArrow=none;html=1;rounded=0;exitX=1;exitY=0.25;exitDx=0;exitDy=0;entryX=0;entryY=0.5;entryDx=0;entryDy=0;" parent="1" source="psFaw4t_rzjO1zKl0KxU-3" target="fRH8fA2iHK6c6NjHja-M-7" edge="1">
          <mxGeometry width="50" height="50" relative="1" as="geometry">
            <mxPoint x="2980" y="1470" as="sourcePoint" />
            <mxPoint x="3030" y="1420" as="targetPoint" />
          </mxGeometry>
        </mxCell>
        <mxCell id="fRH8fA2iHK6c6NjHja-M-18" value="" style="endArrow=none;html=1;rounded=0;exitX=1;exitY=0.5;exitDx=0;exitDy=0;" parent="1" source="psFaw4t_rzjO1zKl0KxU-3" target="fRH8fA2iHK6c6NjHja-M-9" edge="1">
          <mxGeometry width="50" height="50" relative="1" as="geometry">
            <mxPoint x="2890" y="1650" as="sourcePoint" />
            <mxPoint x="2940" y="1600" as="targetPoint" />
          </mxGeometry>
        </mxCell>
        <mxCell id="fRH8fA2iHK6c6NjHja-M-20" value="&lt;font style=&quot;font-size: 60px;&quot;&gt;alert_id&lt;/font&gt;" style="ellipse;whiteSpace=wrap;html=1;strokeColor=#001DBC;fillColor=#0050ef;fontColor=#ffffff;" parent="1" vertex="1">
          <mxGeometry x="-1950" y="2060" width="320" height="170" as="geometry" />
        </mxCell>
        <mxCell id="fRH8fA2iHK6c6NjHja-M-21" value="&lt;font style=&quot;font-size: 60px;&quot;&gt;location&lt;/font&gt;" style="ellipse;whiteSpace=wrap;html=1;strokeColor=#001DBC;fillColor=#0050ef;fontColor=#ffffff;" parent="1" vertex="1">
          <mxGeometry x="-1910" y="2620" width="320" height="170" as="geometry" />
        </mxCell>
        <mxCell id="fRH8fA2iHK6c6NjHja-M-22" value="&lt;font style=&quot;font-size: 60px;&quot;&gt;source_id&lt;/font&gt;" style="ellipse;whiteSpace=wrap;html=1;strokeColor=#001DBC;fillColor=#0050ef;fontColor=#ffffff;" parent="1" vertex="1">
          <mxGeometry x="-1070" y="2990" width="320" height="170" as="geometry" />
        </mxCell>
        <mxCell id="fRH8fA2iHK6c6NjHja-M-23" value="&lt;font style=&quot;font-size: 60px;&quot;&gt;type&lt;/font&gt;" style="ellipse;whiteSpace=wrap;html=1;strokeColor=#001DBC;fillColor=#0050ef;fontColor=#ffffff;" parent="1" vertex="1">
          <mxGeometry x="-1900" y="2330" width="320" height="170" as="geometry" />
        </mxCell>
        <mxCell id="fRH8fA2iHK6c6NjHja-M-24" value="&lt;font style=&quot;font-size: 60px;&quot;&gt;expires_at&lt;/font&gt;" style="ellipse;whiteSpace=wrap;html=1;strokeColor=#001DBC;fillColor=#0050ef;fontColor=#ffffff;" parent="1" vertex="1">
          <mxGeometry x="-760" y="2780" width="320" height="170" as="geometry" />
        </mxCell>
        <mxCell id="fRH8fA2iHK6c6NjHja-M-25" value="&lt;font style=&quot;font-size: 60px;&quot;&gt;source&lt;/font&gt;" style="ellipse;whiteSpace=wrap;html=1;strokeColor=#001DBC;fillColor=#0050ef;fontColor=#ffffff;" parent="1" vertex="1">
          <mxGeometry x="-1500" y="2970" width="320" height="170" as="geometry" />
        </mxCell>
        <mxCell id="fRH8fA2iHK6c6NjHja-M-26" value="&lt;font style=&quot;font-size: 60px;&quot;&gt;severity&lt;/font&gt;" style="ellipse;whiteSpace=wrap;html=1;strokeColor=#001DBC;fillColor=#0050ef;fontColor=#ffffff;" parent="1" vertex="1">
          <mxGeometry x="-1720" y="2800" width="320" height="170" as="geometry" />
        </mxCell>
        <mxCell id="fRH8fA2iHK6c6NjHja-M-27" value="&lt;font style=&quot;font-size: 60px;&quot;&gt;route_id&lt;/font&gt;" style="ellipse;whiteSpace=wrap;html=1;strokeColor=#001DBC;fillColor=#0050ef;fontColor=#ffffff;" parent="1" vertex="1">
          <mxGeometry x="-80" y="2900" width="320" height="170" as="geometry" />
        </mxCell>
        <mxCell id="fRH8fA2iHK6c6NjHja-M-28" value="&lt;font style=&quot;font-size: 60px;&quot;&gt;start_location&lt;/font&gt;" style="ellipse;whiteSpace=wrap;html=1;strokeColor=#001DBC;fillColor=#0050ef;fontColor=#ffffff;" parent="1" vertex="1">
          <mxGeometry x="250" y="3310" width="390" height="240" as="geometry" />
        </mxCell>
        <mxCell id="fRH8fA2iHK6c6NjHja-M-29" value="&lt;font style=&quot;font-size: 60px;&quot;&gt;route_name&lt;/font&gt;" style="ellipse;whiteSpace=wrap;html=1;strokeColor=#001DBC;fillColor=#0050ef;fontColor=#ffffff;" parent="1" vertex="1">
          <mxGeometry x="-40" y="3160" width="390" height="200" as="geometry" />
        </mxCell>
        <mxCell id="fRH8fA2iHK6c6NjHja-M-30" value="&lt;font style=&quot;font-size: 60px;&quot;&gt;estimated_time&lt;/font&gt;" style="ellipse;whiteSpace=wrap;html=1;strokeColor=#001DBC;fillColor=#0050ef;fontColor=#ffffff;" parent="1" vertex="1">
          <mxGeometry x="1550" y="2940" width="470" height="200" as="geometry" />
        </mxCell>
        <mxCell id="fRH8fA2iHK6c6NjHja-M-31" value="&lt;font style=&quot;font-size: 60px;&quot;&gt;end_location&lt;/font&gt;" style="ellipse;whiteSpace=wrap;html=1;strokeColor=#001DBC;fillColor=#0050ef;fontColor=#ffffff;" parent="1" vertex="1">
          <mxGeometry x="670" y="3370" width="410" height="210" as="geometry" />
        </mxCell>
        <mxCell id="fRH8fA2iHK6c6NjHja-M-32" value="&lt;font style=&quot;font-size: 60px;&quot;&gt;waypoints&lt;/font&gt;" style="ellipse;whiteSpace=wrap;html=1;strokeColor=#001DBC;fillColor=#0050ef;fontColor=#ffffff;" parent="1" vertex="1">
          <mxGeometry x="1070" y="3280" width="320" height="170" as="geometry" />
        </mxCell>
        <mxCell id="fRH8fA2iHK6c6NjHja-M-33" value="&lt;font style=&quot;font-size: 60px;&quot;&gt;distance&lt;/font&gt;" style="ellipse;whiteSpace=wrap;html=1;strokeColor=#001DBC;fillColor=#0050ef;fontColor=#ffffff;" parent="1" vertex="1">
          <mxGeometry x="1390" y="3150" width="320" height="170" as="geometry" />
        </mxCell>
        <mxCell id="fRH8fA2iHK6c6NjHja-M-34" value="&lt;font style=&quot;font-size: 60px;&quot;&gt;notify_weather&lt;/font&gt;" style="ellipse;whiteSpace=wrap;html=1;strokeColor=#001DBC;fillColor=#0050ef;fontColor=#ffffff;" parent="1" vertex="1">
          <mxGeometry x="2130" y="2690" width="500" height="170" as="geometry" />
        </mxCell>
        <mxCell id="fRH8fA2iHK6c6NjHja-M-35" value="&lt;font style=&quot;font-size: 60px;&quot;&gt;user_id&lt;/font&gt;" style="ellipse;whiteSpace=wrap;html=1;strokeColor=#001DBC;fillColor=#0050ef;fontColor=#ffffff;" parent="1" vertex="1">
          <mxGeometry x="3110" y="2260" width="320" height="170" as="geometry" />
        </mxCell>
        <mxCell id="fRH8fA2iHK6c6NjHja-M-36" value="&lt;font style=&quot;font-size: 60px;&quot;&gt;preference_id&lt;/font&gt;" style="ellipse;whiteSpace=wrap;html=1;strokeColor=#001DBC;fillColor=#0050ef;fontColor=#ffffff;" parent="1" vertex="1">
          <mxGeometry x="3080" y="2030" width="320" height="170" as="geometry" />
        </mxCell>
        <mxCell id="fRH8fA2iHK6c6NjHja-M-37" value="&lt;font style=&quot;font-size: 60px;&quot;&gt;audio_alerts&lt;/font&gt;" style="ellipse;whiteSpace=wrap;html=1;strokeColor=#001DBC;fillColor=#0050ef;fontColor=#ffffff;" parent="1" vertex="1">
          <mxGeometry x="3080" y="2480" width="470" height="170" as="geometry" />
        </mxCell>
        <mxCell id="fRH8fA2iHK6c6NjHja-M-38" value="&lt;font style=&quot;font-size: 60px;&quot;&gt;text_alerts&lt;/font&gt;" style="ellipse;whiteSpace=wrap;html=1;strokeColor=#001DBC;fillColor=#0050ef;fontColor=#ffffff;" parent="1" vertex="1">
          <mxGeometry x="3040" y="2780" width="440" height="190" as="geometry" />
        </mxCell>
        <mxCell id="fRH8fA2iHK6c6NjHja-M-39" value="&lt;font style=&quot;font-size: 60px;&quot;&gt;notify_hazards&lt;/font&gt;" style="ellipse;whiteSpace=wrap;html=1;strokeColor=#001DBC;fillColor=#0050ef;fontColor=#ffffff;" parent="1" vertex="1">
          <mxGeometry x="2490" y="2860" width="520" height="240" as="geometry" />
        </mxCell>
        <mxCell id="fRH8fA2iHK6c6NjHja-M-40" value="" style="endArrow=none;html=1;rounded=0;entryX=0;entryY=0;entryDx=0;entryDy=0;exitX=1;exitY=1;exitDx=0;exitDy=0;" parent="1" source="fRH8fA2iHK6c6NjHja-M-20" target="psFaw4t_rzjO1zKl0KxU-4" edge="1">
          <mxGeometry width="50" height="50" relative="1" as="geometry">
            <mxPoint x="-1610" y="2190" as="sourcePoint" />
            <mxPoint x="-1500" y="2140" as="targetPoint" />
          </mxGeometry>
        </mxCell>
        <mxCell id="fRH8fA2iHK6c6NjHja-M-41" value="" style="endArrow=none;html=1;rounded=0;exitX=1;exitY=0.5;exitDx=0;exitDy=0;entryX=0;entryY=0.25;entryDx=0;entryDy=0;" parent="1" source="fRH8fA2iHK6c6NjHja-M-23" target="psFaw4t_rzjO1zKl0KxU-4" edge="1">
          <mxGeometry width="50" height="50" relative="1" as="geometry">
            <mxPoint x="-1480" y="2400" as="sourcePoint" />
            <mxPoint x="-1430" y="2350" as="targetPoint" />
          </mxGeometry>
        </mxCell>
        <mxCell id="fRH8fA2iHK6c6NjHja-M-42" value="" style="endArrow=none;html=1;rounded=0;exitX=1;exitY=0;exitDx=0;exitDy=0;entryX=0;entryY=0.5;entryDx=0;entryDy=0;" parent="1" source="fRH8fA2iHK6c6NjHja-M-21" target="psFaw4t_rzjO1zKl0KxU-4" edge="1">
          <mxGeometry width="50" height="50" relative="1" as="geometry">
            <mxPoint x="-1550" y="2610" as="sourcePoint" />
            <mxPoint x="-1500" y="2560" as="targetPoint" />
          </mxGeometry>
        </mxCell>
        <mxCell id="fRH8fA2iHK6c6NjHja-M-43" value="" style="endArrow=none;html=1;rounded=0;entryX=0;entryY=0.75;entryDx=0;entryDy=0;" parent="1" source="fRH8fA2iHK6c6NjHja-M-26" target="psFaw4t_rzjO1zKl0KxU-4" edge="1">
          <mxGeometry width="50" height="50" relative="1" as="geometry">
            <mxPoint x="-1370" y="2750" as="sourcePoint" />
            <mxPoint x="-1320" y="2700" as="targetPoint" />
          </mxGeometry>
        </mxCell>
        <mxCell id="fRH8fA2iHK6c6NjHja-M-44" value="" style="endArrow=none;html=1;rounded=0;exitX=0.5;exitY=0;exitDx=0;exitDy=0;entryX=0;entryY=1;entryDx=0;entryDy=0;" parent="1" source="fRH8fA2iHK6c6NjHja-M-25" target="psFaw4t_rzjO1zKl0KxU-4" edge="1">
          <mxGeometry width="50" height="50" relative="1" as="geometry">
            <mxPoint x="-1200" y="2830" as="sourcePoint" />
            <mxPoint x="-1150" y="2780" as="targetPoint" />
          </mxGeometry>
        </mxCell>
        <mxCell id="fRH8fA2iHK6c6NjHja-M-45" value="" style="endArrow=none;html=1;rounded=0;exitX=0;exitY=0;exitDx=0;exitDy=0;entryX=0.25;entryY=1;entryDx=0;entryDy=0;" parent="1" source="fRH8fA2iHK6c6NjHja-M-22" target="psFaw4t_rzjO1zKl0KxU-4" edge="1">
          <mxGeometry width="50" height="50" relative="1" as="geometry">
            <mxPoint x="-1020" y="2860" as="sourcePoint" />
            <mxPoint x="-970" y="2810" as="targetPoint" />
          </mxGeometry>
        </mxCell>
        <mxCell id="fRH8fA2iHK6c6NjHja-M-46" value="" style="endArrow=none;html=1;rounded=0;exitX=0;exitY=0;exitDx=0;exitDy=0;entryX=0.5;entryY=1;entryDx=0;entryDy=0;" parent="1" source="fRH8fA2iHK6c6NjHja-M-24" target="psFaw4t_rzjO1zKl0KxU-4" edge="1">
          <mxGeometry width="50" height="50" relative="1" as="geometry">
            <mxPoint x="-880" y="2660" as="sourcePoint" />
            <mxPoint x="-830" y="2610" as="targetPoint" />
          </mxGeometry>
        </mxCell>
        <mxCell id="fRH8fA2iHK6c6NjHja-M-47" value="" style="endArrow=none;html=1;rounded=0;exitX=1;exitY=0;exitDx=0;exitDy=0;entryX=0;entryY=0.25;entryDx=0;entryDy=0;" parent="1" source="fRH8fA2iHK6c6NjHja-M-27" target="psFaw4t_rzjO1zKl0KxU-5" edge="1">
          <mxGeometry width="50" height="50" relative="1" as="geometry">
            <mxPoint x="290" y="2870" as="sourcePoint" />
            <mxPoint x="340" y="2820" as="targetPoint" />
          </mxGeometry>
        </mxCell>
        <mxCell id="fRH8fA2iHK6c6NjHja-M-48" value="" style="endArrow=none;html=1;rounded=0;entryX=0;entryY=0.5;entryDx=0;entryDy=0;" parent="1" source="fRH8fA2iHK6c6NjHja-M-29" target="psFaw4t_rzjO1zKl0KxU-5" edge="1">
          <mxGeometry width="50" height="50" relative="1" as="geometry">
            <mxPoint x="360" y="3140" as="sourcePoint" />
            <mxPoint x="410" y="3090" as="targetPoint" />
          </mxGeometry>
        </mxCell>
        <mxCell id="fRH8fA2iHK6c6NjHja-M-49" value="" style="endArrow=none;html=1;rounded=0;exitX=0.382;exitY=0.018;exitDx=0;exitDy=0;exitPerimeter=0;entryX=0;entryY=1;entryDx=0;entryDy=0;" parent="1" source="fRH8fA2iHK6c6NjHja-M-28" target="psFaw4t_rzjO1zKl0KxU-5" edge="1">
          <mxGeometry width="50" height="50" relative="1" as="geometry">
            <mxPoint x="520" y="3140" as="sourcePoint" />
            <mxPoint x="570" y="3090" as="targetPoint" />
          </mxGeometry>
        </mxCell>
        <mxCell id="fRH8fA2iHK6c6NjHja-M-50" value="" style="endArrow=none;html=1;rounded=0;exitX=0;exitY=0;exitDx=0;exitDy=0;entryX=0.25;entryY=1;entryDx=0;entryDy=0;" parent="1" source="fRH8fA2iHK6c6NjHja-M-31" target="psFaw4t_rzjO1zKl0KxU-5" edge="1">
          <mxGeometry width="50" height="50" relative="1" as="geometry">
            <mxPoint x="770" y="3250" as="sourcePoint" />
            <mxPoint x="820" y="3200" as="targetPoint" />
          </mxGeometry>
        </mxCell>
        <mxCell id="fRH8fA2iHK6c6NjHja-M-51" value="" style="endArrow=none;html=1;rounded=0;entryX=0.5;entryY=1;entryDx=0;entryDy=0;" parent="1" target="psFaw4t_rzjO1zKl0KxU-5" edge="1">
          <mxGeometry width="50" height="50" relative="1" as="geometry">
            <mxPoint x="1160" y="3270" as="sourcePoint" />
            <mxPoint x="1140" y="3080" as="targetPoint" />
          </mxGeometry>
        </mxCell>
        <mxCell id="fRH8fA2iHK6c6NjHja-M-52" value="" style="endArrow=none;html=1;rounded=0;exitX=0;exitY=0;exitDx=0;exitDy=0;entryX=0.75;entryY=1;entryDx=0;entryDy=0;" parent="1" source="fRH8fA2iHK6c6NjHja-M-33" target="psFaw4t_rzjO1zKl0KxU-5" edge="1">
          <mxGeometry width="50" height="50" relative="1" as="geometry">
            <mxPoint x="1320" y="3030" as="sourcePoint" />
            <mxPoint x="1370" y="2980" as="targetPoint" />
          </mxGeometry>
        </mxCell>
        <mxCell id="fRH8fA2iHK6c6NjHja-M-53" value="" style="endArrow=none;html=1;rounded=0;exitX=0;exitY=0;exitDx=0;exitDy=0;entryX=1;entryY=1;entryDx=0;entryDy=0;" parent="1" source="fRH8fA2iHK6c6NjHja-M-30" target="psFaw4t_rzjO1zKl0KxU-5" edge="1">
          <mxGeometry width="50" height="50" relative="1" as="geometry">
            <mxPoint x="1450" y="2870" as="sourcePoint" />
            <mxPoint x="1500" y="2820" as="targetPoint" />
          </mxGeometry>
        </mxCell>
        <mxCell id="fRH8fA2iHK6c6NjHja-M-54" value="" style="endArrow=none;html=1;rounded=0;exitX=0.5;exitY=0;exitDx=0;exitDy=0;entryX=0.25;entryY=1;entryDx=0;entryDy=0;" parent="1" source="fRH8fA2iHK6c6NjHja-M-34" target="psFaw4t_rzjO1zKl0KxU-6" edge="1">
          <mxGeometry width="50" height="50" relative="1" as="geometry">
            <mxPoint x="2360" y="2600" as="sourcePoint" />
            <mxPoint x="2410" y="2550" as="targetPoint" />
          </mxGeometry>
        </mxCell>
        <mxCell id="fRH8fA2iHK6c6NjHja-M-55" value="" style="endArrow=none;html=1;rounded=0;entryX=0.5;entryY=1;entryDx=0;entryDy=0;" parent="1" target="psFaw4t_rzjO1zKl0KxU-6" edge="1">
          <mxGeometry width="50" height="50" relative="1" as="geometry">
            <mxPoint x="2700" y="2850" as="sourcePoint" />
            <mxPoint x="2660" y="2600" as="targetPoint" />
          </mxGeometry>
        </mxCell>
        <mxCell id="fRH8fA2iHK6c6NjHja-M-56" value="" style="endArrow=none;html=1;rounded=0;exitX=0.5;exitY=0;exitDx=0;exitDy=0;entryX=0.877;entryY=0.948;entryDx=0;entryDy=0;entryPerimeter=0;" parent="1" source="fRH8fA2iHK6c6NjHja-M-38" target="psFaw4t_rzjO1zKl0KxU-6" edge="1">
          <mxGeometry width="50" height="50" relative="1" as="geometry">
            <mxPoint x="2810" y="2670" as="sourcePoint" />
            <mxPoint x="2860" y="2620" as="targetPoint" />
          </mxGeometry>
        </mxCell>
        <mxCell id="fRH8fA2iHK6c6NjHja-M-57" value="" style="endArrow=none;html=1;rounded=0;exitX=1;exitY=0.75;exitDx=0;exitDy=0;entryX=0.5;entryY=0;entryDx=0;entryDy=0;" parent="1" source="psFaw4t_rzjO1zKl0KxU-6" target="fRH8fA2iHK6c6NjHja-M-37" edge="1">
          <mxGeometry width="50" height="50" relative="1" as="geometry">
            <mxPoint x="2950" y="2540" as="sourcePoint" />
            <mxPoint x="3000" y="2490" as="targetPoint" />
          </mxGeometry>
        </mxCell>
        <mxCell id="fRH8fA2iHK6c6NjHja-M-58" value="" style="endArrow=none;html=1;rounded=0;exitX=1;exitY=0.5;exitDx=0;exitDy=0;entryX=0;entryY=0.5;entryDx=0;entryDy=0;" parent="1" source="psFaw4t_rzjO1zKl0KxU-6" target="fRH8fA2iHK6c6NjHja-M-35" edge="1">
          <mxGeometry width="50" height="50" relative="1" as="geometry">
            <mxPoint x="3000" y="2310" as="sourcePoint" />
            <mxPoint x="3050" y="2260" as="targetPoint" />
          </mxGeometry>
        </mxCell>
        <mxCell id="fRH8fA2iHK6c6NjHja-M-59" value="" style="endArrow=none;html=1;rounded=0;exitX=1;exitY=0;exitDx=0;exitDy=0;entryX=0;entryY=0.5;entryDx=0;entryDy=0;" parent="1" source="psFaw4t_rzjO1zKl0KxU-6" target="fRH8fA2iHK6c6NjHja-M-36" edge="1">
          <mxGeometry width="50" height="50" relative="1" as="geometry">
            <mxPoint x="2930" y="2170" as="sourcePoint" />
            <mxPoint x="2980" y="2120" as="targetPoint" />
          </mxGeometry>
        </mxCell>
        <mxCell id="fRH8fA2iHK6c6NjHja-M-60" value="&lt;font style=&quot;font-size: 76px;&quot;&gt;views&lt;/font&gt;" style="rhombus;whiteSpace=wrap;html=1;" parent="1" vertex="1">
          <mxGeometry x="-480" y="970" width="450" height="350" as="geometry" />
        </mxCell>
        <mxCell id="fRH8fA2iHK6c6NjHja-M-61" value="&lt;font style=&quot;font-size: 76px;&quot;&gt;make&lt;/font&gt;" style="rhombus;whiteSpace=wrap;html=1;" parent="1" vertex="1">
          <mxGeometry x="1400" y="1070" width="450" height="350" as="geometry" />
        </mxCell>
        <mxCell id="fRH8fA2iHK6c6NjHja-M-63" value="&lt;font style=&quot;font-size: 76px;&quot;&gt;enables&lt;/font&gt;" style="rhombus;whiteSpace=wrap;html=1;" parent="1" vertex="1">
          <mxGeometry x="1350" y="1870" width="450" height="350" as="geometry" />
        </mxCell>
        <mxCell id="fRH8fA2iHK6c6NjHja-M-64" value="&lt;font style=&quot;font-size: 76px;&quot;&gt;recieves&lt;/font&gt;" style="rhombus;whiteSpace=wrap;html=1;" parent="1" vertex="1">
          <mxGeometry x="-440" y="1660" width="450" height="350" as="geometry" />
        </mxCell>
        <mxCell id="fRH8fA2iHK6c6NjHja-M-65" value="&lt;font style=&quot;font-size: 76px;&quot;&gt;takes&lt;/font&gt;" style="rhombus;whiteSpace=wrap;html=1;" parent="1" vertex="1">
          <mxGeometry x="360" y="1760" width="450" height="350" as="geometry" />
        </mxCell>
        <mxCell id="fRH8fA2iHK6c6NjHja-M-66" value="" style="endArrow=none;html=1;rounded=0;exitX=1;exitY=1;exitDx=0;exitDy=0;entryX=0;entryY=0.5;entryDx=0;entryDy=0;" parent="1" source="psFaw4t_rzjO1zKl0KxU-1" target="fRH8fA2iHK6c6NjHja-M-61" edge="1">
          <mxGeometry width="50" height="50" relative="1" as="geometry">
            <mxPoint x="670" y="1650" as="sourcePoint" />
            <mxPoint x="720" y="1600" as="targetPoint" />
          </mxGeometry>
        </mxCell>
        <mxCell id="fRH8fA2iHK6c6NjHja-M-76" value="&lt;font style=&quot;font-size: 60px;&quot;&gt;1&lt;/font&gt;" style="edgeLabel;html=1;align=center;verticalAlign=middle;resizable=0;points=[];" parent="fRH8fA2iHK6c6NjHja-M-66" vertex="1" connectable="0">
          <mxGeometry x="-0.8351" y="-4" relative="1" as="geometry">
            <mxPoint x="-1" as="offset" />
          </mxGeometry>
        </mxCell>
        <mxCell id="fRH8fA2iHK6c6NjHja-M-67" value="" style="endArrow=none;html=1;rounded=0;exitX=1;exitY=0.5;exitDx=0;exitDy=0;entryX=0;entryY=0.5;entryDx=0;entryDy=0;" parent="1" source="psFaw4t_rzjO1zKl0KxU-2" target="fRH8fA2iHK6c6NjHja-M-60" edge="1">
          <mxGeometry width="50" height="50" relative="1" as="geometry">
            <mxPoint x="390" y="1060" as="sourcePoint" />
            <mxPoint x="440" y="1010" as="targetPoint" />
          </mxGeometry>
        </mxCell>
        <mxCell id="fRH8fA2iHK6c6NjHja-M-71" value="&lt;span style=&quot;font-size: 61px;&quot;&gt;M&lt;/span&gt;" style="edgeLabel;html=1;align=center;verticalAlign=middle;resizable=0;points=[];" parent="fRH8fA2iHK6c6NjHja-M-67" vertex="1" connectable="0">
          <mxGeometry x="-0.7861" y="1" relative="1" as="geometry">
            <mxPoint x="-3" as="offset" />
          </mxGeometry>
        </mxCell>
        <mxCell id="fRH8fA2iHK6c6NjHja-M-68" value="" style="endArrow=none;html=1;rounded=0;exitX=1;exitY=0.5;exitDx=0;exitDy=0;entryX=0;entryY=1;entryDx=0;entryDy=0;" parent="1" source="fRH8fA2iHK6c6NjHja-M-60" target="psFaw4t_rzjO1zKl0KxU-1" edge="1">
          <mxGeometry width="50" height="50" relative="1" as="geometry">
            <mxPoint x="370" y="1650" as="sourcePoint" />
            <mxPoint x="420" y="1600" as="targetPoint" />
          </mxGeometry>
        </mxCell>
        <mxCell id="fRH8fA2iHK6c6NjHja-M-72" value="&lt;span style=&quot;font-size: 67px;&quot;&gt;N&lt;/span&gt;" style="edgeLabel;html=1;align=center;verticalAlign=middle;resizable=0;points=[];" parent="fRH8fA2iHK6c6NjHja-M-68" vertex="1" connectable="0">
          <mxGeometry x="0.4977" y="-4" relative="1" as="geometry">
            <mxPoint x="51" y="-40" as="offset" />
          </mxGeometry>
        </mxCell>
        <mxCell id="fRH8fA2iHK6c6NjHja-M-69" value="" style="endArrow=none;html=1;rounded=0;entryX=0;entryY=1;entryDx=0;entryDy=0;exitX=0.75;exitY=0;exitDx=0;exitDy=0;" parent="1" source="psFaw4t_rzjO1zKl0KxU-2" target="psFaw4t_rzjO1zKl0KxU-24" edge="1">
          <mxGeometry width="50" height="50" relative="1" as="geometry">
            <mxPoint x="-1270" y="1160" as="sourcePoint" />
            <mxPoint x="-1180" y="920" as="targetPoint" />
          </mxGeometry>
        </mxCell>
        <mxCell id="fRH8fA2iHK6c6NjHja-M-70" value="" style="endArrow=none;html=1;rounded=0;exitX=1;exitY=0;exitDx=0;exitDy=0;entryX=0;entryY=1;entryDx=0;entryDy=0;" parent="1" source="psFaw4t_rzjO1zKl0KxU-2" target="psFaw4t_rzjO1zKl0KxU-23" edge="1">
          <mxGeometry width="50" height="50" relative="1" as="geometry">
            <mxPoint x="-1080" y="1160" as="sourcePoint" />
            <mxPoint x="-1030" y="1110" as="targetPoint" />
          </mxGeometry>
        </mxCell>
        <mxCell id="fRH8fA2iHK6c6NjHja-M-74" value="" style="endArrow=none;html=1;rounded=0;exitX=1;exitY=0.5;exitDx=0;exitDy=0;entryX=0.004;entryY=0.366;entryDx=0;entryDy=0;entryPerimeter=0;" parent="1" source="fRH8fA2iHK6c6NjHja-M-61" target="psFaw4t_rzjO1zKl0KxU-3" edge="1">
          <mxGeometry width="50" height="50" relative="1" as="geometry">
            <mxPoint x="1950" y="1280" as="sourcePoint" />
            <mxPoint x="2570" y="1645" as="targetPoint" />
          </mxGeometry>
        </mxCell>
        <mxCell id="fRH8fA2iHK6c6NjHja-M-75" value="&lt;font style=&quot;font-size: 60px;&quot;&gt;M&lt;/font&gt;" style="edgeLabel;html=1;align=center;verticalAlign=middle;resizable=0;points=[];" parent="fRH8fA2iHK6c6NjHja-M-74" vertex="1" connectable="0">
          <mxGeometry x="0.8229" y="-1" relative="1" as="geometry">
            <mxPoint x="-1" y="-1" as="offset" />
          </mxGeometry>
        </mxCell>
        <mxCell id="fRH8fA2iHK6c6NjHja-M-77" value="" style="endArrow=none;html=1;rounded=0;exitX=0.389;exitY=1;exitDx=0;exitDy=0;entryX=0.5;entryY=0;entryDx=0;entryDy=0;exitPerimeter=0;" parent="1" source="psFaw4t_rzjO1zKl0KxU-1" target="fRH8fA2iHK6c6NjHja-M-65" edge="1">
          <mxGeometry width="50" height="50" relative="1" as="geometry">
            <mxPoint x="480" y="1430" as="sourcePoint" />
            <mxPoint x="1100" y="1795" as="targetPoint" />
          </mxGeometry>
        </mxCell>
        <mxCell id="fRH8fA2iHK6c6NjHja-M-82" value="&lt;font style=&quot;font-size: 60px;&quot;&gt;M&lt;/font&gt;" style="edgeLabel;html=1;align=center;verticalAlign=middle;resizable=0;points=[];" parent="fRH8fA2iHK6c6NjHja-M-77" vertex="1" connectable="0">
          <mxGeometry x="-0.9566" relative="1" as="geometry">
            <mxPoint x="9" y="41" as="offset" />
          </mxGeometry>
        </mxCell>
        <mxCell id="fRH8fA2iHK6c6NjHja-M-78" value="" style="endArrow=none;html=1;rounded=0;exitX=0.5;exitY=1;exitDx=0;exitDy=0;" parent="1" source="fRH8fA2iHK6c6NjHja-M-65" edge="1">
          <mxGeometry width="50" height="50" relative="1" as="geometry">
            <mxPoint x="600" y="2530" as="sourcePoint" />
            <mxPoint x="620" y="2730" as="targetPoint" />
          </mxGeometry>
        </mxCell>
        <mxCell id="fRH8fA2iHK6c6NjHja-M-81" value="&lt;font style=&quot;font-size: 60px;&quot;&gt;1&lt;/font&gt;" style="edgeLabel;html=1;align=center;verticalAlign=middle;resizable=0;points=[];" parent="fRH8fA2iHK6c6NjHja-M-78" vertex="1" connectable="0">
          <mxGeometry x="0.6867" y="-2" relative="1" as="geometry">
            <mxPoint y="-3" as="offset" />
          </mxGeometry>
        </mxCell>
        <mxCell id="fRH8fA2iHK6c6NjHja-M-83" value="" style="endArrow=none;html=1;rounded=0;exitX=0.25;exitY=1;exitDx=0;exitDy=0;entryX=1;entryY=0.5;entryDx=0;entryDy=0;" parent="1" source="psFaw4t_rzjO1zKl0KxU-1" target="fRH8fA2iHK6c6NjHja-M-64" edge="1">
          <mxGeometry width="50" height="50" relative="1" as="geometry">
            <mxPoint x="210" y="1670" as="sourcePoint" />
            <mxPoint x="830" y="2035" as="targetPoint" />
          </mxGeometry>
        </mxCell>
        <mxCell id="fRH8fA2iHK6c6NjHja-M-85" value="&lt;font style=&quot;font-size: 61px;&quot;&gt;1&lt;/font&gt;" style="edgeLabel;html=1;align=center;verticalAlign=middle;resizable=0;points=[];" parent="fRH8fA2iHK6c6NjHja-M-83" vertex="1" connectable="0">
          <mxGeometry x="-0.6483" y="-3" relative="1" as="geometry">
            <mxPoint x="-2" y="2" as="offset" />
          </mxGeometry>
        </mxCell>
        <mxCell id="fRH8fA2iHK6c6NjHja-M-84" value="" style="endArrow=none;html=1;rounded=0;exitX=0.623;exitY=0.102;exitDx=0;exitDy=0;entryX=0;entryY=0.5;entryDx=0;entryDy=0;exitPerimeter=0;" parent="1" source="psFaw4t_rzjO1zKl0KxU-4" target="fRH8fA2iHK6c6NjHja-M-64" edge="1">
          <mxGeometry width="50" height="50" relative="1" as="geometry">
            <mxPoint x="-980" y="2150" as="sourcePoint" />
            <mxPoint x="-360" y="2515" as="targetPoint" />
          </mxGeometry>
        </mxCell>
        <mxCell id="fRH8fA2iHK6c6NjHja-M-86" value="&lt;font style=&quot;font-size: 60px;&quot;&gt;M&lt;/font&gt;" style="edgeLabel;html=1;align=center;verticalAlign=middle;resizable=0;points=[];" parent="fRH8fA2iHK6c6NjHja-M-84" vertex="1" connectable="0">
          <mxGeometry x="-0.7572" y="10" relative="1" as="geometry">
            <mxPoint x="1" y="-1" as="offset" />
          </mxGeometry>
        </mxCell>
        <mxCell id="fRH8fA2iHK6c6NjHja-M-87" value="" style="endArrow=none;html=1;rounded=0;exitX=0.75;exitY=1;exitDx=0;exitDy=0;entryX=0.5;entryY=0;entryDx=0;entryDy=0;" parent="1" source="psFaw4t_rzjO1zKl0KxU-1" target="fRH8fA2iHK6c6NjHja-M-63" edge="1">
          <mxGeometry width="50" height="50" relative="1" as="geometry">
            <mxPoint x="830" y="1460" as="sourcePoint" />
            <mxPoint x="1450" y="1825" as="targetPoint" />
          </mxGeometry>
        </mxCell>
        <mxCell id="fRH8fA2iHK6c6NjHja-M-90" value="&lt;font style=&quot;font-size: 60px;&quot;&gt;1&lt;/font&gt;" style="edgeLabel;html=1;align=center;verticalAlign=middle;resizable=0;points=[];" parent="fRH8fA2iHK6c6NjHja-M-87" vertex="1" connectable="0">
          <mxGeometry x="-0.8911" y="4" relative="1" as="geometry">
            <mxPoint x="1" as="offset" />
          </mxGeometry>
        </mxCell>
        <mxCell id="fRH8fA2iHK6c6NjHja-M-88" value="" style="endArrow=none;html=1;rounded=0;exitX=1;exitY=0.5;exitDx=0;exitDy=0;entryX=0;entryY=0;entryDx=0;entryDy=0;" parent="1" source="fRH8fA2iHK6c6NjHja-M-63" target="psFaw4t_rzjO1zKl0KxU-6" edge="1">
          <mxGeometry width="50" height="50" relative="1" as="geometry">
            <mxPoint x="1960" y="2270" as="sourcePoint" />
            <mxPoint x="2580" y="2635" as="targetPoint" />
          </mxGeometry>
        </mxCell>
        <mxCell id="fRH8fA2iHK6c6NjHja-M-89" value="&lt;font style=&quot;font-size: 60px;&quot;&gt;M&lt;/font&gt;" style="edgeLabel;html=1;align=center;verticalAlign=middle;resizable=0;points=[];" parent="fRH8fA2iHK6c6NjHja-M-88" vertex="1" connectable="0">
          <mxGeometry x="0.7706" y="7" relative="1" as="geometry">
            <mxPoint x="-1" y="-1" as="offset" />
          </mxGeometry>
        </mxCell>
      </root>
    </mxGraphModel>
  </diagram>
</mxfile>
